<svg version="1.1" xmlns="http://www.w3.org/2000/svg" xmlns:xlink="http://www.w3.org/1999/xlink" x="0px" y="0px" width="294px"
	 height="598.9px" viewBox="0 0 294 598.9" style="overflow:visible;enable-background:new 0 0 294 598.9;" xml:space="preserve">
<defs>
</defs>
<g transform="translate(0.000000,720.000000) scale(0.100000,-0.100000)">
	<path fill = "#A3FF91" d="M326.6,7191c-79-10-169-48-217-93c-44-42-87-133-101-215c-7-48-10-820-8-2722l3-2655l26-67c14-36,40-84,57-105
		c37-47,126-96,200-112c37-8,392-11,1174-11c1204,0,1178-1,1279,50c51,27,114,101,141,169l23,56l3,1193c2,1043,4,1192,17,1192
		c23,0,22,735,0,744c-12,4-15,27-15,121c0,96,3,115,15,115c13,0,15,27,15,180c0,152-2,180-15,180c-12,0-15,111-17,853
		c-3,802-4,855-22,903c-47,131-148,205-306,224C2478.6,7203,429.6,7203,326.6,7191z M2808.6,4161V1761h-1355H98.6v2400v2400h1355
		h1355V4161z"/>
</g>
<g transform="translate(0.000000,1280.000000) scale(0.100000,-0.100000)">
	<path fill = "#A3FF91" d="M1383.1,12044.8c-2.5-0.7-26.1-3.2-52.4-5.4c-81-6.8-120.7-20.7-168.4-58.9c-21.9-17.5-56.2-56.8-71.2-81.4
		c-23.5-38.9-41.6-98.9-41.6-138.5v-20.4l-23.2-14.3c-80.7-50-115.6-113.9-95-174.9c22.6-66.8,95.3-119.6,214.1-155.7
		c118.5-36.4,285.9-40.7,418.7-10.7c99.4,22.1,173.1,58.2,219.5,107.5c57.2,60.7,57.2,128.2,0,187.4c-11.8,12.5-31.1,28.6-42.9,36.4
		l-21,13.9v16.8c0,45.3-17.2,113.9-40,160c-20.3,40.7-40,59.3-98.8,92.5c-72.1,40.7-83.6,44.6-143.9,46.1
		C1410.1,12045.5,1385.7,12045.5,1383.1,12044.8z"/>
	<path fill = "#A3FF91" d="M2433.4,11788.1c-6.4-8.6-11.4-17.1-11.4-18.6s12.4-16.1,28-32.1l27.6-29.6l13.3,16.8
		c7.6,9.3,13.7,18.6,13.7,20.7c0,4.6-51.8,58.6-56.5,58.6C2446.4,11803.8,2439.8,11796.7,2433.4,11788.1z"/>
	<path fill = "#A3FF91" d="M2331.4,11739.6c-25.4-34.6-44.2-63.2-43.8-66.8c1.3-11.8,200.8-538.4,204-538.4c2.9,0,221.1,214.2,229,224.9
		c3.2,4.3-26.4,43.2-168.7,223.1c-94.7,119.6-173.1,217.8-174.1,217.8C2376.8,11800.3,2355.9,11772.8,2331.4,11739.6z"/>
	<path fill = "#A3FF91" d="M1889.5,11065.8c-220.2-288.5-580.1-759.4-799.9-1046.5l-399.3-522.7l20.6-24.3l21-24.3l113.7,147.1
		c62.6,80.7,420.6,543.4,796.1,1028.3l682.7,881.2l-15.2,42.5c-8.3,23.2-15.9,42.5-16.8,42.5
		C2291.1,11589.6,2110,11354,1889.5,11065.8z"/>
	<path fill = "#A3FF91" d="M1581.7,11373.3c-60.4-18.9-148.7-28.2-241.4-25.3c-70.8,2.1-107.1,6.8-166.5,20.4
		c-18.1,4.3-33.4,6.8-34.3,6.1c-2.9-3.6,5.4-66.1,12.1-90.7c18.7-69.6,65.1-130.7,122-161.7c34.3-18.2,62.9-25.7,100.1-25.3
		c95.6,0.4,176.9,64.6,214.4,169.9c14.3,40.7,23.2,113.2,13.7,112.1C1599.5,11378.3,1590.6,11375.8,1581.7,11373.3z"/>
	<path fill = "#A3FF91" d="M2630,11210.8c-66.4-65.3-121.4-120-121.7-121.7c-0.6-1.8,3.5-16.1,8.9-31.8c9.2-25.7,10.8-27.8,15.6-23.6
		c2.9,2.9,59.4,56.8,125.8,120.3c66.4,63.6,123.3,117.8,126.4,121c5.1,5.7,4.4,7.1-14.3,30.3l-20,23.9L2630,11210.8z"/>
	<path fill = "#A3FF91" d="M1090.9,11047.3c-50.5-35.3-72.1-52.5-73.7-58.2c-1.3-4.6-5.1-59.6-8.6-122.5c-3.8-62.8-13-221-21-351.7
		c-19.7-332-33.7-579.5-32.1-580.9c4.1-4.6,222.7,273.8,443.5,564.8c67,88.5,160.7,211,207.8,272.8c47.3,61.4,88.6,115.3,91.5,119.6
		c5.1,7.5,5.1,11.8,0.6,61.4c-2.5,29.3-5.7,55.3-7,57.8c-1.3,2.5-36.9,21.4-79.4,41.8l-77.2,36.8l-22.6-17.1
		c-85.8-66.8-196.3-65.7-280.5,1.8c-21.9,17.9-25.1,19.3-46.7,21.1l-23.2,2.1L1090.9,11047.3z"/>
	<path fill = "#A3FF91" d="M1747.5,10990.9c4.4-31.8,4.1-31.4,20.3-12.1l14.6,17.1l-15.6,4.3
		C1745.3,11005.5,1745.6,11005.9,1747.5,10990.9z"/>
	<path fill = "#A3FF91" d="M919.3,10945.9l-58.5-30l-75.9-354.9c-75-349.5-75.9-355.2-72.7-376.3c1.9-11.8,14.6-72.8,28.6-135.7
		c14-62.8,33.7-153.2,43.8-200.7c10.5-47.8,19.7-86.4,21-85.7c2.2,0.7,86.4,115.3,106.1,143.9l7.6,11.1l-28.6,172.8l-28.6,172.8
		l25.1,150c14,82.5,40.7,239.9,59.1,349.9c18.4,110,34,202.8,34.6,206.4c0.6,3.2,0.3,6.1-0.6,6.1
		C979,10975.5,951.7,10961.9,919.3,10945.9z"/>
	<path fill = "#A3FF91" d="M1835.5,10828.1c-26.4-37.8-49.6-71.8-51.8-75.7c-4.1-7.5-7.6,12.1,81-456.3c14.6-78.2,26.7-142.8,26.7-143.5
		c0-2.1,8.3-5.7-178.9,76.4c-82,36.1-149.3,64.6-149.9,63.9c-5.4-6.4-109.6-196.7-108.6-198.2c1-0.7,84.5-18.2,185.5-38.9
		c101-20.4,229.4-46.4,285.3-57.8c87-17.5,101.7-19.6,102.6-15c0.6,4.6-29.2,197.8-88.3,569.5c-7,43.2-21.9,137.8-33.4,210.3
		c-11.4,72.8-21.3,132.5-21.6,132.8C1883.8,10896.3,1861.9,10865.5,1835.5,10828.1z"/>
	<path fill = "#A3FF91" d="M1487.7,10372.8c-128.7-170.3-299.9-395.6-380.3-500.9l-146.5-191.7l1.9-31.1l1.9-30.7l49.6,1.8
		c27.3,1.4,116,3.9,197.3,5.7c81.3,2.1,202.7,5.4,270,7.1c67.3,1.8,172.2,4.6,232.9,5.7l110.6,2.5l-1.9,25.3
		c-1.3,13.9-8.9,93.5-17.2,177.1l-14.6,151.7l-19.1,4.3c-10.5,2.1-96.9,19.6-192.2,38.9c-95.3,18.9-174.4,36.1-176,37.5
		c-1.9,1.8,139.1,243.9,155.3,266.7c1,1.4,48.9-22.9,104.8-52.8c56.5-30.7,97.2-50.7,99.1-48.9c0.6,1.1-5.4,72.8-13.3,160
		c-7.9,87.1-16.8,186.4-19.7,220.3c-2.9,33.6-6,61.4-7,61.4C1722.1,10682.7,1616.3,10543.1,1487.7,10372.8z"/>
	<path fill = "#A3FF91" d="M1669.1,9529.5c-77.8-1.4-262.1-4.6-409.8-6.8c-147.7-2.5-273.2-5-278.9-6.1c-9.2-1.8-10.2-2.9-10.2-15
		c0-7.5,13.7-230.3,30.2-495.2c16.8-265.3,31.1-502.7,32.1-528.4c1.3-31.1-0.6-95-6.4-194.6c-4.4-81.4-13-245.3-19.4-364.2
		l-11.4-216l-8.3-8.6c-37.5-37.5-188.4-198.2-187.1-199.2c0.6-0.7,85.5,3.6,188.1,9.3c267.5,15.7,317,18.9,318.6,20.4
		c0.6,0.7-1.6,36.1-5.1,78.5l-6.7,77.1l6.4,377l6,377.4l55.9,362.4c30.8,199.2,56.9,363.5,57.8,364.9c1,1.4,28-153.9,59.7-344.5
		c56.9-342,58.8-352.8,139.1-741.9l81.6-395.2l-49.6-81.4c-27.3-44.6-49.2-81.4-48.6-82.1c1.6-1.8,406-9.3,407.6-7.5
		c1,1.1-23.5,46.4-54,101.4l-55.6,99.6l-14.6,271c-7.9,149.2-18.1,338.1-22.2,419.5c-4.4,81.4-10.2,186.4-12.7,233.1
		c-3.8,67.1-4.8,171-4.8,492v406.7l-18.1-0.7C1818.7,9532,1746.9,9530.6,1669.1,9529.5z"/>
	<path fill = "#A3FF91" d="M2219.3,9074.3c-4.8-11.1-4.8-19.6-0.6-19.6s9.5,12.1,9.5,21.1C2228.2,9086.1,2223.7,9085,2219.3,9074.3z"/>
	<path fill = "#A3FF91" d="M2198.9,9061.8c-6-9.6-7.6-21.4-2.5-21.4c4.4,0,10.2,13.6,8.9,22.5C2204.3,9070.7,2204.3,9070.7,2198.9,9061.8
		z"/>
	<path fill = "#A3FF91" d="M2310.8,9060c0-2.9,1.6-5.4,3.2-5.4c1.9,0,3.2,2.5,3.2,5.4c0,2.9-1.3,5.4-3.2,5.4
		C2312.4,9065.4,2310.8,9062.9,2310.8,9060z"/>
	<path fill = "#A3FF91" d="M2609.4,9058.6c-1.6-3.9-3.2-10-3.2-13.9c0-3.9-2.2-11.8-4.8-17.1c-2.5-5.7-4.8-12.5-4.8-14.6
		c0-7.5,6.4-5,9.2,3.6c12.4,37.5,14.9,48.9,10.5,48.9C2614.5,9065.4,2611.3,9062.2,2609.4,9058.6z"/>
	<path fill = "#A3FF91" d="M2208.8,9041.5c-1.6-5-2.2-12.1-1.3-15c1.9-5,2.5-4.6,6.7,1.1c5.1,8.2,6,23.6,1.3,23.6
		C2213.6,9051.1,2210.7,9046.8,2208.8,9041.5z"/>
	<path fill = "#A3FF91" d="M2589.7,9044c-6-9.6-7.6-21.4-2.5-21.4c4.4,0,10.2,13.6,8.9,22.5C2595.1,9052.9,2595.1,9052.9,2589.7,9044z"/>
	<path fill = "#A3FF91" d="M2701.5,9042.2c0-2.9,1.6-5.4,3.2-5.4c1.9,0,3.2,2.5,3.2,5.4c0,2.9-1.3,5.4-3.2,5.4
		C2703.1,9047.5,2701.5,9045,2701.5,9042.2z"/>
	<path fill = "#A3FF91" d="M2219.6,9029.3c-1.9-2.9-4.4-9.3-5.7-15c-1.9-7.5-1.3-9.6,2.9-9.6c5.1,0,9.5,12.9,7.6,23.6
		C2223.7,9033.2,2222.8,9033.6,2219.6,9029.3z"/>
	<path fill = "#A3FF91" d="M2198.3,9027.2c-1-1.1-1.9-8.9-1.9-16.8c0.3-13.6,0.6-14.3,4.8-7.9C2208.5,9013.6,2205.9,9035.7,2198.3,9027.2
		z"/>
	<path fill = "#A3FF91" d="M2183.7,9017.2c-3.8-11.4-3.2-21.8,1.6-20.7c5.1,1.1,9.5,22.1,5.4,26.8
		C2188.1,9026.1,2186.2,9024.7,2183.7,9017.2z"/>
	<path fill = "#A3FF91" d="M2606.2,9002.5c-2.2-6.8-2.9-13.6-1.6-15c3.2-3.6,11.1,10.4,11.1,19.6
		C2615.7,9019.7,2610.3,9017.2,2606.2,9002.5z"/>
	<path fill = "#A3FF91" d="M2589.1,9009.3c-1-1.1-1.9-5.7-1.9-9.6c-0.3-7.1-0.6-6.8-4.4,1.1c-4.1,8.6-4.4,8.6-7.9,1.1
		c-5.1-10.7-4.4-22.1,1.3-22.1c2.5,0,4.8,2.5,4.8,5.4c0,6.4,5.1,7.1,7.3,1.1c2.5-6.4,8.6,3.6,8.6,13.9
		C2596.7,9008.3,2592.6,9013.3,2589.1,9009.3z"/>
	<path fill = "#A3FF91" d="M2207.8,8991.8c-1-3.2-1.9-9.6-1.9-14.6c0-13.9,7.9-7.9,8.9,7.1C2215.8,8997.5,2211.3,9002.2,2207.8,8991.8z"
		/>
	<path fill = "#A3FF91" d="M2191.3,8981.5c-2.2-10.7,0.6-21.1,5.1-17.9c4.1,2.9,4.1,26.8,0,26.8
		C2194.8,8990.4,2192.6,8986.5,2191.3,8981.5z"/>
	<path fill = "#A3FF91" d="M2172.3,8974.7c-2.5-11.8,1-22.5,5.4-17.5c4.4,5,5.1,23.2,0.6,25C2176.1,8982.9,2173.5,8979.7,2172.3,8974.7z"
		/>
	<path fill = "#A3FF91" d="M2598.9,8977.2c-1.3-1.1-2.2-7.9-2.2-14.3c0-16.8,7.6-13.6,8.9,3.6C2606.5,8978.6,2604,8982.9,2598.9,8977.2z"
		/>
	<path fill = "#A3FF91" d="M2582.1,8963.6c-2.2-10.7,0.6-21.1,5.1-17.9c4.1,2.9,4.1,26.8,0,26.8
		C2585.6,8972.5,2583.3,8968.6,2582.1,8963.6z"/>
	<path fill = "#A3FF91" d="M2565.2,8962.6c-4.1-8.9-3.5-22.1,1-23.2c4.1-1.1,7.6,15.7,5.1,24.3C2569,8970.4,2569,8970.4,2565.2,8962.6z"
		/>
	<path fill = "#A3FF91" d="M2199.9,8955.1c-1.9-3.9-3.5-9.6-3.5-12.5c0-3.2-1.3-5.7-2.9-5.7c-4.8,0-10.5-22.1-6.7-26.4
		c4.1-4.6,9.5,3.2,9.5,13.2c0,3.2,2.9,9.3,6.4,13.2c6.7,7.5,8.6,19.6,3.5,23.2C2204.3,8961.1,2201.5,8959,2199.9,8955.1z"/>
	<path fill = "#A3FF91" d="M2182.4,8952.6c-2.9-8.6-2.2-22.9,1.3-22.9c3.2,0,9.5,21.4,7.3,26.1
		C2188.8,8960.1,2184.3,8958.6,2182.4,8952.6z"/>
	<path fill = "#A3FF91" d="M2109,8940.8c-1-1.8-0.3-4.3,1.6-5.7c3.8-2.5,9.5,0.7,9.5,5.7C2120.2,8945.1,2111.6,8945.1,2109,8940.8z"/>
	<path fill = "#A3FF91" d="M2168.1,8937.6c-4.8-10-4.4-23.2,0.3-21.4c5.4,2.1,10.2,20.7,6.4,25
		C2172.6,8943.6,2170.4,8942.6,2168.1,8937.6z"/>
	<path fill = "#A3FF91" d="M2575.1,8937.9c-4.8-9.3-5.1-22.5-0.6-22.5c4.8,0,7,8.2,5.7,20.4C2579.2,8945.8,2579.2,8945.8,2575.1,8937.9z"
		/>
	<path fill = "#A3FF91" d="M2590.6,8937.6c-1.9-3.9-3.5-9.6-3.5-12.5c0-2.9-1.9-6.1-4.4-7.1c-2.5-1.1-5.4-6.8-6.7-12.5
		c-1-6.1-4.1-11.8-6.7-12.9c-3.2-1.4-4.4-5.7-3.8-13.6c1.3-15.4,7-15.4,8.3,0c0.6,6.4,2.9,11.4,5.4,11.4c4.4,0,7.9,7.5,7.9,17.9
		c0,3.6,1.9,7.1,4.4,8.2c2.2,1.1,5.4,6.4,6.4,11.8C2600.8,8940.8,2595.4,8947.6,2590.6,8937.6z"/>
	<path fill = "#A3FF91" d="M2499.2,8921.9c0.6-2.5,3.2-4.6,5.4-4.6s4.8,2.1,5.7,4.6c0.6,2.5-1.6,4.3-5.7,4.3S2498.2,8924.3,2499.2,8921.9
		z"/>
	<path fill = "#A3FF91" d="M2557.3,8920.4c-3.2-9.6-2.2-23.6,1.9-22.1c4.1,1.8,9.5,20.4,7,25C2563.6,8927.9,2559.5,8926.5,2557.3,8920.4z
		"/>
	<path fill = "#A3FF91" d="M2175.4,8902.9c-2.2-10.7,0.6-21.1,5.1-17.9c4.1,2.9,4.1,26.8,0,26.8
		C2178.9,8911.9,2176.7,8907.9,2175.4,8902.9z"/>
	<path fill = "#A3FF91" d="M2190.1,8886.9c0-15.4,4.4-19.3,7.6-6.1c3.2,13.2,2.2,20.4-2.9,20.4
		C2191.3,8901.1,2190.1,8897.2,2190.1,8886.9z"/>
	<path fill = "#A3FF91" d="M2159.6,8885.4c-2.5-7.5-0.3-21.8,3.5-21.8c1.9,0,3.5,6.1,4.1,13.6C2168.1,8890.4,2163,8895.8,2159.6,8885.4z"
		/>
	<path fill = "#A3FF91" d="M2583,8884.4c-3.5-7.1-4.8-21.4-2.5-25.7c2.2-3.9,3.5-3.2,6.4,2.5c1.9,3.9,3.5,10.7,3.5,14.6
		C2590.3,8883.3,2585.6,8889,2583,8884.4z"/>
	<path fill = "#A3FF91" d="M2176.1,8874c-2.9-8.2-2.2-22.1,1-24.3c3.5-2.5,6.7,6.1,6.7,17.5C2183.7,8877.6,2178.6,8881.9,2176.1,8874z"/>
	<path fill = "#A3FF91" d="M2550.9,8870.4c-2.9-8.2-2.2-22.1,1-24.3c3.5-2.5,6.7,6.4,6.7,19.6C2558.6,8876.9,2554.1,8879.7,2550.9,8870.4
		z"/>
	<path fill = "#A3FF91" d="M2046.1,8855.8c-1-9.6-2.9-36.1-4.1-58.9l-2.2-41.8l-26.1,30.3c-31.5,35.7-43.2,40.7-14,5.7
		c11.1-13.2,24.5-31.1,29.5-39.3l8.9-14.6l-3.8-104.6c-5.4-136.7-5.4-483.8-0.3-552.7c14.6-194.9,43.5-342.8,87.7-452
		c9.5-23.9,10.5-28.9,12.7-79.6c1.3-29.6,3.5-53.9,5.1-53.9s2.9,23.9,2.9,53.2v52.8l17.5,41.4c32.4,76.4,52.1,153.5,59.4,233.1
		c6,67.1,5.1,301-1.6,367c-2.9,29.3-5.7,53.9-6.4,54.3c-0.3,0.4-1-55.7-1.3-124.6c-1-209.6-11.4-310.6-51.1-489.9L2144,7614
		l-1.9,32.1c-1.3,17.9-2.2,138.2-2.5,267.8c-0.3,273.1-2.2,255.6,33,335.6c40.7,92.8,88.6,164.6,175.7,262.4
		c60.4,67.5,54.6,65.7-15.6-5c-83.2-84.3-136.3-158.5-162-226.7c-5.1-12.9-9.2-21.8-9.2-19.6c0,5.4,20.6,105.3,33.7,163.9
		c6.7,29.3,15.6,57.8,21,68.9c9.2,18.2,10.2,25.7,2.9,20.4c-14-9.6-26.1-53.2-61-223.1l-18.7-91l1.6,153.5
		c2.5,233.5,12.4,423.1,25.4,481.3c1.6,7.1,1.3,9.6-2.5,9.6c-9.2,0-22.2-133.5-26.4-274.2c-1.3-37.8-2.9-68.2-3.5-67.1
		c-0.6,0.7-6,23.2-12.1,50c-16.8,73.9-38.4,132.8-62.9,171l-10.8,17.1l1.6,66.1C2051.2,8871.2,2049.6,8889.7,2046.1,8855.8z
		 M2065.8,8685.9c17.2-35.3,38.8-93.5,52.7-142.1l11.8-40.7l0.6-437.4l0.3-437.4l-18.4,92.1c-38.8,196-50.5,302.1-59.4,529.1
		c-5.1,137.5-7.9,467.4-3.8,464.5C2051.5,8713,2058.8,8700.1,2065.8,8685.9z"/>
	<path fill = "#A3FF91" d="M2436.9,8843.3c-1.3-10.4-2.9-37.8-4.1-60.7c-1.3-23.2-2.5-42.1-3.2-42.1c-0.3,0-12.4,12.9-26.4,28.6
		c-30.8,34.6-41,38.2-12.7,4.3c11.1-13.2,24.5-30.7,29.2-38.9l9.2-15l-3.5-92.1c-5.7-157.8-7.6-374.5-3.8-481.3
		c7.9-227.1,38.4-406.7,91.2-537c8.3-20,10.8-31.1,10.8-46.8c0-35.3,4.1-85.7,6.7-85.7c1.6,0,2.9,24.3,2.9,53.9v53.6l14.6,34.6
		c28.3,66.8,46.7,130,56.5,193.5c12.4,81.4,14.3,298.5,3.8,411.7c-2.5,27.5-5.1,50-5.7,50.7c-0.6,0.7-1.3-54.6-1.6-122.5
		c-1.3-207.4-11.1-303.8-49.6-477.4l-16.5-75l-1.9,21.4c-1.3,11.8-2.2,132.1-2.5,267.4l-0.3,246.4l7.9,29.6
		c10.8,39.3,24.5,72.8,49.9,120.7c41,77.1,89,142.5,168.1,228.5c25.1,27.1,37.8,42.8,28.3,34.3c-60-52.5-146.8-149.2-179.5-200.7
		c-10.5-16.4-26.7-46.4-35.6-67.1c-9.2-20.4-16.8-36.4-16.8-35c0,4.6,29.2,146,36.9,177.4c4.4,18.6,12.4,42.5,17.5,52.5
		c10.5,21.8,10.8,22.5,4.8,22.5c-7.9,0-23.5-42.1-35.3-94.6c-6-27.5-19.1-88.5-28.3-135.7l-17.5-85.7v92.8
		c-0.6,199.9,11.4,453.1,24.8,532c2.9,16.4,0.3,28.6-4.1,20.4c-7.3-13.2-19.7-159.2-22.9-271.7c-1.3-39.3-3.2-70.7-4.4-70
		c-1.3,0.7-1.9-196.4-1.9-437.7c0.3-241.7-0.6-434.2-1.9-427.4c-1.3,6.4-9.2,47.8-18.1,92.1c-34,170.7-45.1,259.9-54.3,440.9
		c-7.9,155-12.7,547-6.7,543c9.8-6.8,46.4-96,66.1-161c15.2-51.1,15.6-40,0.3,21.4c-15.9,64.3-34,111.4-57.2,148.5l-12.4,20.4
		l2.2,68.2C2442,8860.1,2440.7,8881.1,2436.9,8843.3z"/>
	<path fill = "#A3FF91" d="M2567.1,8859.7c-1.3-1.4-2.2-8.2-2.2-14.6c0-15,7.3-14.6,8.9,0.4C2575.1,8855.8,2571,8864,2567.1,8859.7z"/>
	<path fill = "#A3FF91" d="M2390.2,8733.3c0-1.8,1.6-3.6,3.2-3.6c1.9,0,3.2,1.8,3.2,3.6c0,2.1-1.3,3.6-3.2,3.6
		C2391.8,8736.9,2390.2,8735.5,2390.2,8733.3z"/>
	<path class="st0" d="M2780.9,8715.5c0-1.8,1.6-3.6,3.2-3.6c1.9,0,3.2,1.8,3.2,3.6c0,2.1-1.3,3.6-3.2,3.6
		C2782.5,8719.1,2780.9,8717.6,2780.9,8715.5z"/>
	<path fill = "#A3FF91" d="M2407.7,8697.6c-1.3-2.1-1-5.7,1-7.9c1.9-2.1,3.8-2.1,5.4,0.7c1.3,2.1,1,5.7-1,7.9
		C2411.2,8700.5,2409.3,8700.5,2407.7,8697.6z"/>
	<path fill = "#A3FF91" d="M2796.8,8678.4c0-3.2,2.2-5.7,5.1-5.7c5.4,0,4.4,7.9-1.3,10C2798.4,8683.4,2796.8,8681.6,2796.8,8678.4z"/>
	<path fill = "#A3FF91" d="M2311.7,8653.7c-3.2-4.3-11.1-12.5-17.5-18.2c-6.7-5.7-12.1-12.9-12.1-16.1c0.3-4.6,1.3-3.9,6,2.5
		c3.5,4.3,7.3,7.9,8.6,7.9c2.5,0,26.7,27.8,26.7,30.7C2323.5,8664.8,2316.8,8660.9,2311.7,8653.7z"/>
	<path fill = "#A3FF91" d="M2294.9,8653c-2.2-3.2-3.2-6.4-2.2-7.9c2.5-2.5,11.8,5.4,11.8,10C2304.4,8660.1,2299.3,8659.1,2294.9,8653z"/>
	<path fill = "#A3FF91" d="M2695.8,8629.8c-5.7-7.9-12.4-14.3-14.6-14.3c-4.4,0-8.3-7.5-8.3-15.4c0.3-2.5,2.5-1.1,5.7,2.9
		c2.9,4.3,7.9,8.6,11.1,10c2.9,1.1,6.4,5,7.6,8.6c1.3,3.2,5.7,9.6,10.2,14.3c5.7,5.4,6.7,7.9,3.5,8.2
		C2708.5,8644.1,2701.5,8637.7,2695.8,8629.8z"/>
	<path fill = "#A3FF91" d="M2682.5,8633.4c-4.1-8.6,0.6-9.6,7.6-1.4c6.4,6.8,6.4,8.6,0.3,8.6C2687.9,8640.5,2684.4,8637.3,2682.5,8633.4z
		"/>
	<path fill = "#A3FF91" d="M2276.5,8632.7c-4.4-5-5.1-13.6-1-13.6c3.2,0,8.3,13.9,6,16.4C2280.9,8636.2,2278.4,8634.8,2276.5,8632.7z"/>
	<path fill = "#A3FF91" d="M2298.7,8625.5c-2.2-2.5-3.8-6.8-3.8-9.6c0-3.9,1.3-3.6,6.4,1.4c6.7,6.8,8.3,12.5,3.8,12.5
		C2303.8,8629.8,2300.9,8628,2298.7,8625.5z"/>
	<path fill = "#A3FF91" d="M2667.2,8614.8c-1.9-2.1-3.8-6.8-3.8-9.6c0-4.6,0.6-4.6,5.1,0.4c2.9,3.2,4.8,7.5,4.1,9.6
		C2671.7,8618.4,2670.1,8618,2667.2,8614.8z"/>
	<path fill = "#A3FF91" d="M2259,8609.4c-1.3-1.1-2.2-5.7-2.2-9.6c0.3-7.5,0.3-7.5,4.8-0.7c2.5,3.9,4.8,8.2,4.8,10
		C2266.3,8612.7,2261.8,8613,2259,8609.4z"/>
	<path fill = "#A3FF91" d="M2273.3,8605.9c-5.7-11.4-5.1-18.2,1.3-11.1c2.9,2.9,4.4,8.6,3.8,12.1
		C2277.1,8613.4,2276.8,8613,2273.3,8605.9z"/>
	<path fill = "#A3FF91" d="M2285.7,8607.3c-2.2-3.2-3.5-8.6-2.9-12.1c1-5.7,1.6-5.4,5.4,1.8C2293,8607.3,2291.4,8614.8,2285.7,8607.3z"/>
	<path fill = "#A3FF91" d="M2689.4,8607.7c-2.2-2.5-3.8-6.8-3.8-9.6c0-3.9,1.3-3.6,6.4,1.4c6.7,6.8,8.3,12.5,3.8,12.5
		C2694.5,8611.9,2691.7,8610.2,2689.4,8607.7z"/>
	<path fill = "#A3FF91" d="M2259,8587.7c-3.2-3.9-4.8-9.3-3.5-12.9c1.6-4.3,0.3-6.8-4.1-7.9c-6.7-2.1-15.2-15-12.1-18.6
		c1.3-1.4,3.8,0.4,6,3.9c2.2,3.2,5.7,6.1,7.9,6.1c1.9,0,5.1,3.2,7.3,7.1c2.2,3.9,5.7,7.1,7.9,7.1c2.2,0,5.4,3.2,7.3,7.1
		c2.5,5.7,2.5,7.1-1.3,7.1c-2.2,0-5.1-2.5-6.4-5.4c-1-2.9-3.5-5.4-5.4-5.4c-2.5,0-2.5,1.4,0.3,5.4
		C2269.2,8589.8,2265.3,8595.5,2259,8587.7z"/>
	<path fill = "#A3FF91" d="M2647.5,8587.3c-1.9-4.6-1.9-7.9-0.3-9.3c2.9-1.8,9.8,8.6,9.8,13.9C2657,8596.9,2650.7,8593.4,2647.5,8587.3z"
		/>
	<path fill = "#A3FF91" d="M2664,8589.8c-4.4-5-5.1-13.6-1-13.6c3.2,0,8.3,13.9,6,16.4C2668.5,8593.4,2665.9,8592,2664,8589.8z"/>
	<path fill = "#A3FF91" d="M2677.1,8589.8c-6.7-10-7.6-13.6-2.9-13.6c2.5,0,5.7,3.2,6.7,7.5C2683.4,8592.7,2681.5,8595.9,2677.1,8589.8z"
		/>
	<path fill = "#A3FF91" d="M2244.7,8582.7c-4.4-5-5.1-15-0.6-11.8c4.4,3.2,10.2,16.1,7,16.1C2249.8,8587,2246.9,8585.2,2244.7,8582.7z"/>
	<path fill = "#A3FF91" d="M2647.5,8569.1c-1.9-3.6-3.2-8.2-2.9-9.6c1.3-7.5-0.6-11.8-5.1-11.8c-5.1,0-12.7-13.6-9.5-17.1
		c1.3-1.4,3.8,0.4,6,3.9c2.2,3.2,5.7,6.1,7.6,6.1c1.9,0,5.1,3.2,7,7.1c1.9,3.9,5.1,7.1,7.3,7.1c5.4,0,12.4,13.2,8.6,16.1
		c-1.6,1.1-4.8-1.1-7-5.4c-5.1-9.3-10.2-9.3-5.7-0.4c4.1,8.6,4.1,11.1,0,11.1C2652.3,8576.2,2649.4,8573,2647.5,8569.1z"/>
	<path fill = "#A3FF91" d="M2633.5,8563.4c-4.8-13.9,1.3-15,7.6-1.1c2.5,5.4,2.2,6.8-1.3,6.8C2637.7,8569.1,2634.5,8566.6,2633.5,8563.4z
		"/>
	<path fill = "#A3FF91" d="M2225,8547.3c-2.2-3.9-2.9-8.6-1.6-9.6c2.2-2.5,11.1,8.9,11.1,14.3C2234.5,8557.7,2228.5,8554.8,2225,8547.3z"
		/>
	<path fill = "#A3FF91" d="M2249.5,8547.7c-2.9-4.6-4.4-9.6-3.5-11.4c2.5-4.3,11.8,10.4,10.2,15.7
		C2255.2,8554.5,2252.6,8552.7,2249.5,8547.7z"/>
	<path fill = "#A3FF91" d="M2231.4,8533c-2.2-3.9-2.9-8.6-1.6-9.6c2.2-2.5,11.1,8.9,11.1,14.3C2240.9,8543.4,2234.8,8540.5,2231.4,8533z"
		/>
	<path fill = "#A3FF91" d="M2616.4,8532.7c-4.4-5-5.1-15-0.6-11.8c4.4,3.2,10.2,16.1,7,16.1C2621.5,8537,2618.6,8535.2,2616.4,8532.7z"/>
	<path fill = "#A3FF91" d="M2640.2,8529.8c-2.9-4.6-4.4-9.3-3.8-10.4c2.9-2.9,12.1,9.3,10.5,14.3
		C2645.9,8536.6,2643.7,8535.5,2640.2,8529.8z"/>
	<path fill = "#A3FF91" d="M2622.7,8518.4c-2.2-2.5-3.8-6.8-3.8-9.6c0-3.9,1.3-3.6,6.4,1.4c6.7,6.8,8.3,12.5,3.8,12.5
		C2627.8,8522.7,2625,8520.9,2622.7,8518.4z"/>
</g>
</svg>

