<svg version="1.1" xmlns="http://www.w3.org/2000/svg" xmlns:xlink="http://www.w3.org/1999/xlink" x="0px" y="0px" width="294px"
	 height="598.9px" viewBox="0 0 294 598.9" style="overflow:visible;enable-background:new 0 0 294 598.9;" xml:space="preserve">
<defs>
</defs>
<g transform="translate(0.000000,720.000000) scale(0.100000,-0.100000)">
	<path fill = "#A3FF91" d="M326.6,7191c-79-10-169-48-217-93c-44-42-87-133-101-215c-7-48-10-820-8-2722l3-2655l26-67c14-36,40-84,57-105
		c37-47,126-96,200-112c37-8,392-11,1174-11c1204,0,1178-1,1279,50c51,27,114,101,141,169l23,56l3,1193c2,1043,4,1192,17,1192
		c23,0,22,735,0,744c-12,4-15,27-15,121c0,96,3,115,15,115c13,0,15,27,15,180c0,152-2,180-15,180c-12,0-15,111-17,853
		c-3,802-4,855-22,903c-47,131-148,205-306,224C2478.6,7203,429.6,7203,326.6,7191z M2808.6,4161V1761h-1355H98.6v2400v2400h1355
		h1355V4161z"/>
</g>
<g transform="translate(0.000000,820.000000) scale(0.100000,-0.100000)">
	<path fill = "#A3FF91" d="M1100.8,6215.1c-10.3-7-13.6-17.7-10.5-33c2.5-11.5,3.8-13.4,27.5-37c18.7-18.7,25.4-27,27.1-33
		c1.5-4.9,2.3-37.9,2.3-85.3v-77.4l-9.2-9.1c-5.7-5.5-10.3-12.3-11.5-17.2c-1.5-5.5-2.3-51.5-2.3-135.3v-127.2H1088
		c-86.3,0-216.8-6.2-293.4-13.8c-200.7-20.2-364.6-65.1-463.9-127.2c-24.6-15.3-50.8-37.7-50.2-42.8c0.6-4.9-0.2-7.9-2.1-6.8
		c-1,0.6-1.7-0.4-1.5-2.6c0-1.9-0.8-3.4-2.3-3.2c-1.7,0.4-2.1-0.9-1.3-3c0.8-2.1,0.4-3-1-1.9c-1.3,0.6-2.9,0.2-3.8-1.1
		c-1-1.7-0.6-1.9,1.3-0.9c2.1,1.3,2.3,0.9,1-2.3c-7.3-17.4-16-48.3-18.9-67.9c-1.9-12.8-4.8-29.6-6.5-37.2c-3.4-16-3.8-44-0.8-52.1
		c1-3,2.9-14.3,4.2-25.1c2.9-26.2,8-58.3,11.5-76.4c1.7-8.1,3.1-14.9,3.1-15.1c0-0.2-5.9-0.6-13.2-1.1c-70.9-3-123.6-22.3-136-50.4
		c-3.6-7.9-4-16.8-4-123v-114.7l11.5-13l11.5-13.2v-23.8c0-23.4,0.2-24,4.8-24c4.2,0,5.2-2.3,10.3-23.8c3.8-16,6.9-24.9,9.7-27.2
		c5.5-4.3,9.4-17.2,7.8-26c-1.7-9.8,5-30.9,16.8-51.7c11.5-20.6,12.6-21.7,16.6-18.3c2.3,2.1,3.8,1.1,7.3-4.7
		c2.5-4,4.4-9.1,4.4-11.5s2.5-8.1,5.5-12.6c6.5-10,36.5-41.3,39.7-41.3c2.3,0,16.2-13.6,32.3-31.9c10.1-11.5,38.2-30.4,50.2-33.8
		c9.2-2.8,24.1-11.1,29.6-16.4c10.1-10.2,45.3-23.2,68.4-25.1c5.9-0.4,14.5-2.3,19.5-4.3c4.8-1.9,12.8-4.9,17.8-6.8
		c12-4.7,47.4-6.2,68.2-3.2c13.2,1.9,19.7,1.9,29.2,0c10.7-2.1,15.1-1.9,33.8,1.9c11.8,2.3,25.4,6.2,30.4,8.5
		c12.6,6.2,28.1,10.4,41.3,11.9c13.6,1.5,46.8,17.7,57.9,28.3c4.2,3.8,16.4,11.3,27.1,16.6c22.7,10.9,43.4,28.1,57.7,47.4
		c8,10.6,10.7,13,17,13.8c10.3,1.3,18.9,8.1,28.8,22.6c15.7,23,21.2,38.5,12,35.1c-6.3-2.6,7.3,17,14.3,20.4
		c8.8,4.3,16.8,16.8,23.3,36.4c8.2,24.7,10.3,36.4,7.3,38.3c-3.1,1.9,1,18.9,6.7,26c8.8,11.7,10.3,24.7,9.4,86.6
		c-0.6,35.1-1.9,61.7-3.4,66.6c-1.3,4.7-1.9,8.9-1,9.6c2.3,2.6,120.1,3,124.5,0.6c2.7-1.5,4.6-5.5,5.5-11.9c0.8-5.5,3.8-12.3,6.7-16
		c5.2-6.2,6.3-6.4,21.4-6.4h16.2l27.3-19.1l27.3-19.1h52.9h52.9l0.6-33.4l0.6-33.6l119-0.6l118.8-0.4l1.3,13.2
		c0.6,7.4,1.7,22.8,2.5,34l1.3,20.9h34.4c27.3,0,34.4-0.6,34.4-2.8c0-11.1,25-69.6,29.8-69.6c3.8-0.2,14.7-25.5,15.7-36.6
		c1.5-16.8,17-45.3,40.5-73.6c8.4-10.2,12.2-13.2,15.3-12.3c4.8,1.3,10.5-4.7,23.3-24.3c13.9-21.3,33.2-37.7,90.5-76.6
		c9.2-6.4,21.2-15.5,26.9-20.4c5.5-4.9,14.9-11.7,21-15.3c14.1-7.9,52.5-23.8,57.7-23.8c5.9,0,36.1-11.3,44.5-16.6
		c10.7-6.8,26.7-12.6,45.3-16.2c22.9-4.3,50.4-6.4,51.8-4c1.9,3,31.5-0.6,43-5.1c17.6-6.8,82.9-3.6,96.1,4.7
		c6.5,4.3,29.2,7.9,46.6,7.7c8.6-0.2,21.8,1.3,29.4,3.2c15.7,4,56.3,20.6,61.1,25.1c4.6,4,38.4,19.1,52.7,23.4
		c15.1,4.5,36.9,18.9,69.9,46.4c19.3,16.2,29,22.8,34.2,23.6c16.4,2.8,38.6,22.6,59.8,53.2c7.8,11.5,9.7,15.5,8.2,18.5
		c-2.7,4.9,11.5,24.5,22.9,31.3c14.1,8.5,28.5,32.3,43.2,70.6c4.4,11.5,6.3,19.4,5.2,21.5c-2.1,4,8.8,33,14.9,39.8
		c4,4.3,6.7,4.9,19.1,4.9c10.7,0,14.3-0.6,14.3-3c0-8.5,76.8-27.4,95.1-23.6c11.1,2.6,19.3,8.9,25.4,20c5.5,10.4,11.5,34,11.8,45.3
		c0,5.3-0.6,5.7-10.9,6.4l-11.1,0.6l-9.4-19.1c-8-16.2-10.3-19.1-14.5-19.1c-8.8,0-12.8,11.3-12.8,35.7c0,23.4-2.3,30-13,38.5
		c-17.2,13-39.2,12.6-52.5-0.9c-4.4-4.5-8-10-8-12.6c0-3.8-1-4.7-5.7-4l-5.5,0.6l-0.2,30.9c0,27,0.6,32.6,4.8,44.7
		c4.6,12.8,4.8,16,3.6,41.5c-1.5,29.4-5,51.7-9,56.6c-3.6,4.5-6.9,26.4-7.6,51.1c-0.4,17.7-1.9,25.5-6.5,38.7
		c-8.2,23.4-19.3,47.7-22.9,49.8c-5,2.8-13.2,21.7-18.1,40.9c-2.7,11.1-7.8,23.6-12.6,31.9c-11.3,18.9-35.5,49.4-40.3,50.6
		c-5.2,1.5-22,22.6-28.1,35.5c-2.7,6-10.1,16.6-16.2,23.4c-6.1,7-10.1,13-9,13.4c1.3,0.4,15.3,6.8,31.3,14.5
		c16.2,7.7,30.4,13.8,31.9,13.8s4-6.6,6.3-17c3.8-17.7,6.5-21.5,18.3-24.5c7.3-1.9,12.4,5.7,10.7,16c-3.6,22.3-5.2,24.5-51.4,68.1
		c-33.6,31.7-45.8,44.7-52.1,55.3c-12.6,21.3-33.4,42.3-62.5,64c-32.5,24.3-52.1,35.7-79.8,46.6c-58.1,23.2-121.5,32.3-216.8,31.7
		l-36.7-0.2l-9.9,56.2c-36.7,209.4-58.3,334.3-58.3,336c0,1.1,23.3,1.9,53.3,1.9h53.1l5.5,8.1c22.5,33.6-0.2,61.1-64.2,77.9
		c-108.1,28.5-392.7,26.6-606-4.3c-58.6-8.3-161.8-28.3-170.2-32.8c-6.1-3.4-12.4-14.9-12.4-22.8c0-8.7,7.1-17,17.8-20.6l8.4-3
		l1-61.1c1-61.1,1-61.1,6.1-65.1c6.3-5.1,10.9-5.1,17.8,0.4c2.9,2.3,5.5,3.8,5.5,3.2c0-0.6-3.4-13.4-7.3-28.3
		c-23.3-86-39.2-180.9-42.4-252.1l-1.3-29.4h-40.7h-40.5v127.2c0,82.8-0.8,129.8-2.3,135.1c-1.3,4.5-5.9,11.9-10.5,16.6l-8.2,8.3
		v92.6c0,104,1,96.8-16.4,118.1c-11.5,14-57.3,61.7-59.2,61.7C1108.5,6220,1104.8,6217.8,1100.8,6215.1z M1375.3,6083.4
		c-0.8-2.8-9-28.3-18.7-57l-17.4-52.1v57v56.8h18.7C1376.2,6088.1,1376.4,6088.1,1375.3,6083.4z M1737.6,6061l89.6-1.3v-189.2
		v-188.9l-33-0.2c-18.3-0.2-34.6-0.4-36.3-0.6c-1.7-0.4-6.9-0.6-11.3-0.9l-8.2-0.4l1.3-20.2l1-20.2l-12.8-8.9
		c-36.5-24.9-83.7-70-110-105.1c-42-56-70.9-115.3-89.8-184.3l-3.4-12.3H1445h-79.5v44.3c0,24.5,0.6,51.9,1.5,60.9l1.3,16.4l41.1,34
		c24.3,20.2,43.9,38.1,47.9,43.8c9.4,13.8,12.6,29.4,9.2,45.5l-2.5,12.6l12.6,14.7c16.2,19.1,27.1,35.5,37.6,56.8
		c8.2,16.6,30.6,43,39.5,46.4c6.3,2.6,26.4-5.1,52.1-19.4c28.8-16.2,39.7-18.5,40.7-8.7c0.4,3.2-1,8.9-3.1,13
		c-8,15.5-131.6,139.8-138.9,139.8c-6.7,0-5.7-7,7.1-49.1c6.3-20.9,11.5-41.3,11.5-45.5c0-10-4.4-20-11.8-26.8
		c-6.1-5.5-95.3-62.3-96.1-61.1c-4.4,7-30.4,33.8-35.9,37l-7.3,4v54.3c0,89.6,9.2,157,29.4,216c13.9,40.9,35.1,77.4,56,96.8
		l12.2,11.3l89.2-1.3C1607.7,6063.2,1688.1,6061.9,1737.6,6061z M1952.3,6057l16.8-1.1l5.9-15.1c28.5-74.5,32.7-178.7,11.5-282.6
		c-7.1-35.3-9.4-41.9-15.7-43.2c-5-0.9-5.5-0.4-4.2,4.7c11.5,53.2,14.3,76.6,9.7,85.5c-1.3,2.1-5.5,5.3-9.4,7
		c-8.4,3.6-10.5,9.6-8.6,23.6c2.3,15.3-7.8,30.9-20.1,30.9c-9.9,0-20.8-13.2-34-41.1c-18.1-37.7-25.2-66.2-20.4-80.9
		c2.3-7,1.9-8.7-8-28.7l-10.5-21.3l-13.2-4.3c-7.3-2.6-14.9-5.1-16.8-5.7c-3.6-1.5-3.8,8.3-3.8,185.5c0,103,0.4,187.7,0.8,188.1
		C1833.5,6059.8,1931.5,6058.5,1952.3,6057z M1556,5762.3c0.6-1.5-15.3-14-19.3-15.1c-1.7-0.6-7.1,12.3-19.3,44.9l-5,13.4l21.4-20.9
		C1545.8,5773.4,1555.6,5763.2,1556,5762.3z M1633.3,5686.3c4.6-7.2,2.5-7.9-8-2.6c-7.6,4-56.5,33.4-66.7,40.2
		c-2.5,1.9-1.5,3.8,6.1,11.7l9.2,9.6l28.1-27C1617.5,5703.4,1631.6,5688.9,1633.3,5686.3z M292.9,5473.2c0,2.8,0.2,2.8,2.1,0
		c1.7-2.6,2.1-2.6,2.1-0.2c0,1.7,0.4,2.6,1,2.1c0.4-0.6-2.9-13-7.6-27.4c-4.8-14.7-10.7-39.1-13-54.7c-2.5-15.5-5.2-28.3-6.3-28.3
		c-4.2,0,6.7,54.5,16.6,83c4,11.9,6.9,22.1,6.5,22.8c-0.6,0.4-4-7.7-7.8-17.9c-7.3-20.9-15.5-54.5-17.8-74.7
		c-0.8-7.2-2.3-13.2-3.4-13.2c-2.5,0-2.5-0.2,1.3,22.3c3.8,23.2,9,44,16.6,63.6c2.9,8.1,5,15.1,4.6,15.5
		c-1.5,1.5-13.2-31.1-17.8-49.1c-2.3-9.1-5.5-24.7-6.7-34.5c-1.5-9.8-3.4-17.9-4.4-17.9c-0.8,0-1.7,0.9-1.7,1.9
		c0,5.3,6.9,41.7,10.7,55.3c5.5,21.1,21,54.5,23.1,50.9C292.5,5470.6,292.9,5470.6,292.9,5473.2z M309.5,5471.9
		c0.2,2.3,0.6,3.6,1.3,3c0.6-0.6-1.7-14.3-5.2-30.2c-3.4-16-8-40.9-10.1-55.5c-1.9-14.7-4.4-26.6-5.2-26.6
		c-3.1,0,3.1,41.9,12.6,81.5c2.9,12.8,4.8,23.4,4.4,24c-1.7,1.7-14.5-55.1-17.8-78.9c-3.6-24.9-8.4-37.4-5.9-14.9
		c3.8,34.7,21.4,105.1,24.3,97.7C309.3,5468,309.5,5468,309.5,5471.9z M317,5450.8c-5.7-37.2-7.8-47.9-9.9-47.9
		c-1,0-1.5,1.7-0.8,3.8c0.6,1.9,2.9,15.1,5.5,29.1c5.7,33.8,6.5,37.7,7.6,36.8C319.8,5472.1,318.7,5462.3,317,5450.8z M276.1,5452.5
		c-9-21.5-15.5-45.3-19.1-70.2c-1.5-9.8-3.4-17.7-4.4-17.7c-2.1,0-2.1-0.2,1.5,22.8c3.8,24.3,12,50.4,21.2,69.4
		c4,7.9,7.6,14.3,8,14.3C283.7,5471,280.5,5462.7,276.1,5452.5z M321,5442.1c-1.9-15.1-4.2-28.9-5.2-30.6c-2.9-5.1-2.3,2.6,2.3,30.9
		c2.3,14,4.2,26.4,4.2,27.4c0,1.1,0.4,1.5,1,0.9C324,5470.2,322.9,5457.2,321,5442.1z M295.2,5445.3c-3.6-12.1-8.6-35.3-11.1-51.3
		c-2.7-16.2-5.5-29.4-6.3-29.4c-2.3,0-2.3,0.6,2.5,28.9c4,23.4,8,39.8,16.2,65.3C302.6,5478.5,301.5,5467.2,295.2,5445.3z
		 M326.3,5443.2c-2.5-23.8-5.7-39.4-5.9-27.4c0,3,1.3,14.9,2.9,26.6c1.7,11.7,3.1,22.6,3.1,24.3s0.4,2.6,1,1.9
		S327.7,5456.3,326.3,5443.2z M331.7,5447c-0.6-11.9-2.1-25.1-3.1-29.1l-1.7-7.4l-0.2,6.4c-0.2,8.5,4.4,52.1,5.7,52.1
		C332.8,5468.9,332.6,5459.1,331.7,5447z M335.9,5433.4c-0.8-12.8-2.3-21.9-3.6-21.9c-1.3,0-1.7,2.6-1,6.4
		c0.8,3.4,2.1,16.6,2.9,29.1s1.9,19.6,2.3,15.5C337,5458.5,336.8,5445.3,335.9,5433.4z M338.9,5412.7c-1.9-1.7-2.1,0.6-1,9.4
		c0.6,6.4,1.5,19.8,1.7,29.8c0.4,13.4,0.6,11.1,1-9.4C341.2,5423.6,340.6,5414.2,338.9,5412.7z M308.9,5432.1
		c-3.1-16.6-6.5-33.6-7.6-37.9c-1.3-4.3-2.1-12.6-2.1-18.5s-1-11.5-2.3-12.3c-3.8-2.3,0.2,26.6,10.1,75.3
		C314.5,5475.7,316,5470.8,308.9,5432.1z M347.3,5439.1c0-6.4-0.8-15.5-1.7-20.2c-1.3-6.2-1.9-0.4-1.9,20.2
		c0,20.6,0.6,26.4,1.9,20.2C346.4,5454.6,347.3,5445.5,347.3,5439.1z M351.5,5434c0.2-12.8-0.2-22.8-1-22.1
		c-0.6,0.6-1.3,13.4-1.5,28.3c-0.2,14.9,0.2,24.9,0.8,22.1C350.6,5459.5,351.3,5446.8,351.5,5434z M355.9,5463.6l0.2,4.3l1.9-4.3
		l1.9-4.3l0.2,4.3c0.8,8.9,6.3-15.1,7.6-33.6c1-14.3,0.8-18.7-0.8-17.7c-1.5,0.9-2.5,8.3-2.7,18.9c-0.2,9.6-1,20.4-1.9,23.8
		c-0.8,3.6-1.3-5.1-0.8-19.1l0.6-25.5l-1.9,24.3c-1,13.2-2.5,24.7-3.4,25.5c-0.6,0.6-0.6-9.4,0.2-22.3c1-16.6,0.8-24-0.8-25.1
		c-1.7-1.1-2.3,5.1-2.3,21.5c0,12.6-0.6,25.3-1,28.3c-1,4.7-0.8,4.7,0.8,1.1l2.1-4.3L355.9,5463.6z M372.5,5431.7
		c1-9.4,1-17.9,0.2-18.7c-0.8-0.9-2.1,6.2-2.7,16c-0.6,9.8-1.9,21.1-2.5,25.1c-1,7.4-1,7.4,1,1.1
		C369.7,5451.7,371.4,5441,372.5,5431.7z M378.1,5426.6c1.9-22.1-0.2-18.5-3.1,5.1c-1.3,10.6-2.7,21.5-3.4,24.5
		c-0.6,3,0.4,1.1,2.1-4S377.3,5435.5,378.1,5426.6z M383.4,5458.3c0,2.6,0.4,2.6,1.3,0.2c0.8-2.1,1.5-2.1,2.7-0.2
		c1,1.7,3.4-2.6,5.9-10.9c5.9-18.7,8.6-33.6,6.5-35.1c-1-0.6-1.9,0.9-1.9,3.4c0,6.4-6.5,34.5-7.8,33.4c-0.4-0.6,0.6-8.3,2.3-17.2
		c3.6-17.2,4-21.9,2.1-19.8c-2.3,2.1-6.9,34.3-5.9,39.8c0.8,4.7,0.6,4.7-1,1.1c-1.9-4-2.1-4-2.1-0.2c-0.2,2.3-0.6,3.6-1.3,3
		c-0.6-0.6,0.2-7.9,2.1-16.4c1.7-8.5,2.9-18.5,2.9-22.1c-0.2-5.3-0.6-4.5-2.1,3.8c-2.3,13.2-6.3,33-7.6,37.2c-0.8,2.8-0.8,2.8,1.3,0
		C382.7,5455.5,383.2,5455.5,383.4,5458.3z M397.9,5454c0,2.8,0.2,2.8,2.1,0s2.1-2.8,2.1,0s0.2,2.8,2.1,0c1.9-2.8,2.1-2.8,2.1,0
		c0.2,1.9,1.3,1.1,3.1-2.1c1.9-3.2,3.1-4,3.1-2.1s1.3,1.1,3.1-2.1c1.9-3.2,3.1-4,3.1-2.1s1.3,1.1,3.1-2.1c1.9-3.2,3.1-4,3.1-2.1
		s1.3,1.1,3.1-2.1c3.4-5.7,4.4-2.1,1.3,4c-1.7,3.2-0.8,3.6,7.1,3.4c5,0,9.9-0.9,10.9-1.9c0.8-1.1,0.6-1.3-0.8-0.4
		c-1.5,0.9-2.7,0.9-2.7-0.2c0.2-3.2,10.3-20.9,10.5-18.1c0,1.5-1,4.9-2.3,7.2c-1.9,3.4-1.7,4,0.4,2.8c1.9-1.3,2.3-0.6,1.3,1.7
		c-0.6,2.1-0.8,3.6-0.4,3.6c1.7,0,13.6-25.1,13.4-28.1c0-1.5-2.3,2.1-5,7.9c-2.7,6-5,9.4-5,7.9c-0.2-1.5,1.3-5.7,3.1-9.1
		c1.7-3.6,2.7-7,2.1-7.7c-0.6-0.6-2.5,2.1-4.4,6l-3.1,7.2l1-6.4c0.8-5.1-0.2-4-4,4.3c-5.9,12.3-7.1,11.7-2.1-1.1
		c1.9-4.9,2.9-9.1,2.5-9.8c-0.6-0.4-3.4,4.9-6.1,12.1c-2.5,7.4-5,12.3-5.5,11.1c-0.4-1.1,1.3-6.6,3.6-12.3
		c2.3-5.5,3.8-10.6,3.4-11.3c-0.6-0.6-2.1,1.7-3.4,5.1c-1.3,3.4-3.1,8.1-4.2,10.4c-2.3,4.5-2.3,5.1,1-11.7c0.6-3-0.8,0.2-3.4,7
		c-5.2,14.7-8.2,14.9-3.1,0.2c1.9-5.5,2.9-10.4,2.5-10.9c-0.4-0.6-2.9,5.5-5.5,13.2s-5,13.6-5.7,13c-0.6-0.6,0.4-5.5,2.3-11.1
		c1.9-5.5,3.4-11.7,3.4-13.4c-0.2-1.9-2.5,4-5.5,13.2c-2.9,9.4-5.9,16.4-6.3,15.7c-0.6-0.6,1-7.4,3.6-15.1c2.3-7.9,4-14.9,3.4-15.5
		c-0.6-0.4-2.7,4.9-4.8,11.9c-4.4,16.4-6.5,15.7-2.3-0.6c1.9-6.6,2.5-11.9,1.7-11.9s-2.7,5.3-4.2,11.9c-2.5,11.3-8.4,27.4-8.6,23.6
		c0-1.1,1.9-8.5,4.4-16.6c2.3-8.1,4-15.7,3.4-17.2c-0.4-1.5-1.7,0.2-2.5,3.6c-3.4,15.1-9.9,35.5-10.7,34.5
		c-0.6-0.6,0.8-7.4,3.1-15.3c2.5-7.9,4.4-16.8,4.2-20c-0.2-4.3-0.6-3.6-2.1,3c-3.4,15.1-6.7,26.8-7.6,26c-0.4-0.4,0.8-7.2,2.5-15.3
		c1.9-7.9,2.9-15.3,2.5-16.8c-0.6-1.3-1.7,0.6-2.3,4c-4.4,19.8-7.6,32.8-8.8,36.4c-1,3.4-0.8,3.4,1,0.9
		C397.4,5451.2,397.9,5451.2,397.9,5454z M382.1,5435.7c3.6-19.8,3.8-24.9,1.3-23.4c-0.8,0.6-2.3,7.7-3.1,15.5
		c-0.6,7.9-1.9,17.4-2.5,20.9c-0.8,3.6-0.8,5.7,0,5.1C378.5,5452.9,380.6,5444.9,382.1,5435.7z M259.5,5238
		c2.3-16.2,5.5-35.3,6.9-42.8c1.7-7.4,2.1-13.6,1.3-13.6c-2.5,0-10.1,39.1-13.6,70.2c-0.8,6.4-1.9,13.6-2.5,16
		c-0.8,3.2-0.4,3.6,1.3,1.9C254.1,5268.5,257.2,5254.2,259.5,5238z M265.4,5240.8c1.5-12.1,4.2-30.2,6.3-40.4
		c3.8-19.4,2.3-26.4-1.7-8.5c-6.3,28.1-12,70.6-9.2,70.6C261.8,5262.5,263.9,5252.7,265.4,5240.8z M269.8,5256.8
		c0-3.4,2.1-18.9,4.4-34.7c2.5-15.7,4.8-31.5,5.5-35.1c0.6-4.5,0.2-5.5-1-3.2c-2.1,3.2-9.7,44.7-12.2,66.6c-0.8,8.3-0.6,12.1,1,12.1
		C268.8,5262.5,269.8,5260,269.8,5256.8z M277,5246.1c1.3-14.7,5.2-40.4,8.8-59.1c0.8-4.7,0.6-5.7-1-4.3c-1.3,1.3-4.6,17.7-7.6,36.2
		c-5.7,36.8-6.3,43.6-3.4,43.6C274.6,5262.5,276.1,5255.1,277,5246.1z M283.5,5245.1c0.6-9.8,2.9-27,5-38.5
		c2.1-11.5,2.9-21.3,2.3-21.7c-1.9-1.1-5,14.9-9.4,45.7c-3.6,26-3.8,31.9-1.3,31.9C281.2,5262.5,282.6,5254.6,283.5,5245.1z
		 M288.7,5254.6c0-4.5,1.9-20.9,4.2-36.6c3.6-25.5,4-32.8,1.3-29.8c-0.8,0.9-6.5,40.4-8.8,61.1c-1,9.1-0.6,13.2,1,13.2
		C287.7,5262.5,288.7,5259.1,288.7,5254.6z M295.8,5245.1c0.8-9.8,1.9-23,2.7-29.4c0.6-6.4,0.4-11.1-0.4-10.2
		c-1.5,1.5-7.1,41.9-7.3,52.3c0,2.6,0.8,4.7,1.9,4.7C293.5,5262.5,295,5254.6,295.8,5245.1z M298.6,5255.7c-0.6-1.5-1-0.4-1,2.6
		c0,3,0.4,4,1,2.8C299,5259.5,299,5257,298.6,5255.7z M1480.9,4870.2c0-3.8-0.6-11.5-1.3-17l-1.5-9.8l-92.6,0.4l-92.6,0.6l-0.6,14.7
		c-0.4,8.1-0.2,15.7,0.2,17c0.6,1.7,27.9,2.1,94.7,1.7l93.6-0.4V4870.2z"/>
	<path fill = "#A3FF91" d="M398.1,5448.5c0-2.3,0.6-3,1.3-1.3c0.6,1.5,0.4,3.4-0.2,4C398.5,5452.1,397.9,5450.8,398.1,5448.5z"/>
	<path fill = "#A3FF91" d="M412.8,5446.6c0.2-4,3.8-10.9,3.8-7.4c0,1.7-0.8,4.7-1.9,6.4S412.8,5447.8,412.8,5446.6z"/>
	<path fill = "#A3FF91" d="M432.7,5441.2c2.7-10.2,4.4-11.5,5.9-5.1l1.7,6.2l2.7-5.3c1.7-3,2.9-4.3,2.9-3.2c0,3.6-5.9,13-6.1,9.6
		c0-2.8-0.2-2.8-2.1,0c-1.9,2.8-2.1,2.8-2.1,0c0-2.8-0.2-2.8-2.3,0C431.6,5445.7,431.4,5445.3,432.7,5441.2z"/>
	<path fill = "#A3FF91" d="M243,5281.7c0-3,0.4-4,1-2.6c0.4,1.3,0.4,3.8,0,5.3C243.4,5285.7,243,5284.6,243,5281.7z"/>
</g>
</svg>
